<svg xmlns="http://www.w3.org/2000/svg" xmlns:xlink="http://www.w3.org/1999/xlink" width="500" zoomAndPan="magnify" viewBox="0 0 375 374.999991" height="500" preserveAspectRatio="xMidYMid meet" version="1.2"><defs><clipPath id="ab2033d5d6"><path d="M 5.324219 61.78125 L 227.324219 61.78125 L 227.324219 283.78125 L 5.324219 283.78125 Z M 5.324219 61.78125 "/></clipPath><clipPath id="458d7e6cf6"><path d="M 227.390625 143.804688 L 367.640625 143.804688 L 367.640625 284 L 227.390625 284 Z M 227.390625 143.804688 "/></clipPath></defs><g id="522ecf961e"><g clip-rule="nonzero" clip-path="url(#ab2033d5d6)"><path style=" stroke:none;fill-rule:nonzero;fill:#ffffff;fill-opacity:1;" d="M 227.371094 172.804688 C 144.101562 188.132812 131.675781 200.5625 116.347656 283.832031 C 101.019531 200.5625 88.589844 188.132812 5.324219 172.804688 C 88.589844 157.480469 101.019531 145.050781 116.347656 61.78125 C 131.675781 145.050781 144.101562 157.480469 227.371094 172.804688 Z M 227.371094 172.804688 "/></g><g clip-rule="nonzero" clip-path="url(#458d7e6cf6)"><path style=" stroke:none;fill-rule:nonzero;fill:#ffffff;fill-opacity:1;" d="M 367.421875 213.820312 C 314.910156 223.488281 307.074219 231.324219 297.40625 283.839844 C 287.742188 231.324219 279.902344 223.488281 227.390625 213.820312 C 279.902344 204.15625 287.742188 196.316406 297.40625 143.804688 C 307.074219 196.316406 314.910156 204.15625 367.421875 213.820312 Z M 367.421875 213.820312 "/></g></g></svg>